{"title":"Alan Walker ft. Iselin Solheim - Faded (2015-2016)","uid":14073655,"size":124697316,"categoryP":"video","categoryS":"music_videos","magnet":"?xt=urn:btih:fee647514e323840d28a4fed36cf30475133fe39&amp;dn=Alan+Walker+ft.+Iselin+Solheim+-+Faded+%282015-2016%29&amp;tr=udp%3A%2F%2Ftracker.leechers-paradise.org%3A6969&amp;tr=udp%3A%2F%2Fzer0day.ch%3A1337&amp;tr=udp%3A%2F%2Fopen.demonii.com%3A1337&amp;tr=udp%3A%2F%2Ftracker.coppersurfer.tk%3A6969&amp;tr=udp%3A%2F%2Fexodus.desync.com%3A6969","seeders":20,"leechers":4,"uploader":"MeRaDil","files":2,"time":1459194667,"description":"http://gifyu.com/images/faded.png\r\n\r\n                                    MEDIA INFO\r\n\r\nAlan Walker ft. Iselin Solheim - Faded\r\nFormat                                   : MPEG-4\r\nFormat profile                           : Base Media\r\nCodec ID                                 : isom (isom/iso2/avc1/mp41)\r\nFile size                                : 55.2 MiB\r\nDuration                                 : 3mn 32s\r\nOverall bitrate                          : 2 177 Kbps\r\nMusicVid Name                            : Faded\r\nPerformer                                : Alan Walker ft. Iselin Solheim\r\nPublisher                                : MeRaDil\r\nGenre                                    : Electro/Ballad\r\nContentType                              : Music Video\r\nRecorded date                            : 2015\r\nWriting application                      : Lavf56.32.100/MeRaDil\r\nCover                                    : Yes\r\nRating                                   : ****\r\nReleasedate                              : Norway - december 3 - 2015\r\n \nhttp://gifyu.com/images/faded2.png\r\n\r\nVideo\r\nID                                       : 1\r\nFormat                                   : AVC\r\nFormat/Info                              : Advanced Video Codec\r\nFormat profile                           :   \r\nFormat settings, CABAC                   : Yes\r\nFormat settings, ReFrames                : 3 frames\r\nCodec ID                                 : avc1\r\nCodec ID/Info                            : Advanced Video Coding\r\nDuration                                 : 3mn 32s\r\nBit rate                                 : 1 908 Kbps\r\nWidth                                    : 1 920 pixels\r\nHeight                                   : 1 080 pixels\r\nDisplay aspect ratio                     : 16:9\r\nFrame rate mode                          : Constant\r\nFrame rate                               : 25.000 fps\r\nColor space                              : YUV\r\nChroma subsampling                       : 4:2:0\r\nBit depth                                : 8 bits\r\nScan type                                : Progressive\r\nBits/(Pixel*Frame)                       : 0.037\r\nStream size                              : 48.3 MiB (88%)\r\nColor range                              : Limited\r\n\r\nAudio\r\nID                                       : 2\r\nFormat                                   : AAC\r\nFormat/Info                              : Advanced Audio Codec\r\nFormat profile                           : LC\r\nCodec ID                                 : 40\r\nDuration                                 : 3mn 32s\r\nBit rate mode                            : Constant\r\nBit rate                                 : 256 Kbps\r\nChannel(s)                               : 2 channels\r\nChannel positions                        : Front: L R\r\nSampling rate                            : 44.1 KHz\r\nFrame rate                               : 43.066 fps (1024 spf)\r\nCompression mode                         : Lossy\r\nStream size                              : 6.49 MiB (12%)\r\nDefault                                  : Yes\r\nAlternate group                          : 1\r\n \nhttp://gifyu.com/images/faded1.png","torrent":{"xt":"urn:btih:fee647514e323840d28a4fed36cf30475133fe39","amp;dn":"Alan+Walker+ft.+Iselin+Solheim+-+Faded+%282015-2016%29","amp;tr":["udp%3A%2F%2Ftracker.leechers-paradise.org%3A6969","udp%3A%2F%2Fzer0day.ch%3A1337","udp%3A%2F%2Fopen.demonii.com%3A1337","udp%3A%2F%2Ftracker.coppersurfer.tk%3A6969","udp%3A%2F%2Fexodus.desync.com%3A6969"],"infoHash":"fee647514e323840d28a4fed36cf30475133fe39","infoHashBuffer":{"type":"Buffer","data":[254,230,71,81,78,50,56,64,210,138,79,237,54,207,48,71,81,51,254,57]},"announce":[],"urlList":[]}}